<svg class="icon" style="width: 1em; height: 1em;vertical-align: middle;fill: currentColor;overflow: hidden;" viewBox="0 0 1024 1024" version="1.1" xmlns="http://www.w3.org/2000/svg"><path d="M512 650.3zM802.8 557.4c-0.7 0.6-1.3 1.2-2 1.9-82.2 71.5-186.8 108-284.3 107.6 60.2 61.1 150.4 83.8 251.5 83.8 103.6 0 195.9-41.4 256-105.9-53.3-57.4-131.9-82.4-221.2-87.4zM223.2 559.2c-0.7-0.6-1.3-1.2-2-1.9-89.3 5-167.9 30.1-221.2 87.3 60.1 64.6 152.4 105.9 256 105.9 101.1 0 191.3-22.7 251.5-83.8-97.4 0.6-202.1-36-284.3-107.5z" fill="#1296db" /><path d="M211.4 398.6c61.8-0.9 126.8 21.6 181.8 59.2-7.3-19.5-10.5-42.3-11.3-64.1-79.6-61.4-186.8-102.7-276.6-101.2-1.8 84.6 39.7 176 122 247.6 82 71.3 180.3 107.4 277.3 106.1-71.6 0.8-142.5-24.4-203-74.3-60.9-50.1-91.6-114-90.2-173.3zM642.1 393.8c-1.4 23.4-5.2 43.2-10.8 63.5 54.9-36.9 120.3-59.6 181.3-58.7 1.3 59.2-29.4 123.2-90.2 173.3-60.6 49.9-131.3 75.2-203 74.3 97.1 1.4 195.2-34.8 277.3-106.1 82.3-71.5 123.8-162.9 122-247.6-88.5-1.4-197.5 41.4-276.6 101.3z" fill="#1296db" /><path d="M413.8 499.4c0 51.1 38.4 96.6 98.2 126.2 59.8-29.6 98.2-75.2 98.2-126.2 0-51.1-38.4-96.6-98.2-126.2-59.8 29.6-98.2 75.2-98.2 126.2z m0 0" fill="#1296db" /><path d="M395.7 498.8c0-9.1 1.1-17.9 3.1-26.7-49.7-33.7-104.6-53.4-160.4-52.6-1.2 53.9 26.7 112.1 82.1 157.7 53.4 44 121 66.7 184.5 67.4-66.8-35.1-109.3-87.3-109.3-145.8zM625.2 472.3c1.9 8.7 3.1 17.5 3.1 26.5 0 58.4-42.5 110.7-109.3 145.8 63.5-0.7 131.1-23.4 184.4-67.4 55.3-45.6 83.3-103.8 82-157.7-54.8-0.8-110.6 19.8-160.2 52.8zM641.7 764.1c-47.3-13.6-88.9-35.6-122.3-68.4h-0.1s-3.9-3.5-7.3-8.3c0 0-1.6 2.3-4.8 5.7-0.2 0.2-0.4 0.3-0.5 0.5-0.9 0.9-1.8 1.9-2.9 2.9-0.2 0.2-0.3 0.2-0.5 0.3-33.1 32.1-74.3 53.8-121 67.3-2.2 6.7-3.6 13.6-3.6 20.6C378.7 833 430.8 876 512 904c81.2-28 133.3-71 133.3-119.2 0-7.1-1.4-14-3.6-20.7zM408 448.4c15.4-40.8 52.7-76.4 104-101.8 51.2 25.4 88.6 61 104 101.8h1c4.8-23.6 7.2-47.7 7.2-71.8 0-103.8-43.8-196.3-112.2-256.5-68.4 60.2-112.2 152.7-112.2 256.5 0 24.7 2.6 48.7 7.3 71.8h0.9z" fill="#1296db" /></svg>